<?xml version="1.0"?>
<svg width="31" height="55.8" xmlns="http://www.w3.org/2000/svg" xmlns:svg="http://www.w3.org/2000/svg">
 <style type="text/css">.st0{fill:#58297B;}
	.st1{fill:#231F20;}
	.st2{fill:#5CC6CA;}
	.st3{fill:#FFFFFF;}
	.st4{fill:#010101;}</style>
 <g>
  <title>Layer 1</title>
  <g id="svg_1">
   <g id="svg_2">
    <path id="svg_3" d="m13.099997,36.9l-2.8,0l3.7,-13.1l-3.1,-11.6l1.9,0c0.1,0 0.7,0 0.9,0.8l1.7,6.6l1.6,-6.6c0.2,-0.8 0.8,-0.8 0.9,-0.8l1.9,0l-3,11.6l3.5,13l-2.6,0l-2.2,-9l-2.4,9.1z"/>
    <g id="svg_4">
     <path id="svg_5" d="m14.599997,9.9c-0.9,-3.8 -1.6,-9.5 -1.6,-9.5l1.1,-0.2l0.5,2l0.6,-2.2l1,0l0.3,1.1l0.5,-1.1l1.3,0.3c0,0 -0.6,5.6 -1.6,9.8c-0.7,-1.1 -1.1,-1.9 -1.1,-1.9s-0.3,1.1 -1,1.7z"/>
     <polygon id="svg_6" points="17.5,38.70000076293945 17.599998474121094,38.70000076293945 17.5,38.70000076293945 13.099998474121094,38.70000076293945 13.099998474121094,38.70000076293945 13.099998474121094,38.70000076293945 8.099998474121094,45.29999923706055 10.5,54 15.299995422363281,55.79999923706055 15.299995422363281,55.70000076293945 15.299995422363281,55.79999923706055 20.099998474121094,54 22.5,45.29999923706055 "/>
     <g id="svg_7">
      <path id="svg_8" d="m19.899997,9.7c0,0 6.2,-7.7 10.8,-7.7c-3.1,3.1 -1.5,7.1 -6.2,9l-4.6,-1.3z"/>
      <g id="svg_9">
       <path id="svg_10" d="m22.799997,26.8c0,0 1,-1.2 1.8,-1.2c1.6,-0.3 2.4,-1.3 2.7,-1.9c0.4,-0.8 0,-2.8 0,-2.8s-1.4,0 -2.2,0.8c-2.3,1.9 -2.3,5.1 -2.3,5.1z"/>
       <path id="svg_11" d="m20.999997,33.1c0,0 1.3,-2.6 1.8,-3.3c0.5,-0.9 4.1,-3.4 4.6,-3.8c0.4,-0.3 0.3,1.4 0,1.5c-0.4,0.2 -2.9,2.1 -3.6,2.8c-0.5,0.4 -1,1.2 -1.7,2.1c-0.6,0.8 -1.1,0.7 -1.1,0.7z"/>
       <path id="svg_12" d="m22.099997,35c0,0 1.5,-2.6 2.9,-3.9c0.7,-0.6 2.4,-1.9 2.4,-1.9c0.2,0.3 0.2,1.6 -0.6,2.2c-0.3,0.2 -0.9,0.7 -1.5,1c-0.5,0.3 -2.1,2.2 -2.2,2.3c-0.3,0.3 -1,0.3 -1,0.3z"/>
       <path id="svg_13" d="m26.999997,33.1c0,0 -0.3,1 -0.8,1.5c-0.8,0.7 -2.5,1.2 -3.1,2c-0.7,0.9 -0.8,5.9 -0.8,5.9s0.4,-0.2 0.6,-0.7c0.2,-0.5 0.8,-3.8 1.3,-4.3c0.6,-0.6 1.2,-0.5 2.2,-1.6c0.4,-0.4 0.6,-2.8 0.6,-2.8z"/>
       <path id="svg_14" d="m22.699997,12.2l-3.4,12.3c0,0 0.8,-0.1 1,-0.7c0.2,-0.7 4.3,-10.3 4.3,-10.3c-0.6,-1.2 -1.9,-1.3 -1.9,-1.3z"/>
       <path id="svg_15" d="m26.199997,14.9l-2.9,5.7c0,0 0.6,0.2 1.1,-0.4c0.2,-0.3 2.7,-2.9 2.7,-2.9s0,-1.6 -0.9,-2.4z"/>
      </g>
     </g>
     <g id="svg_16">
      <path id="svg_17" d="m10.799997,9.7c0,0 -6.2,-7.7 -10.8,-7.7c3.1,3.1 1.5,7.1 6.2,9l4.6,-1.3z"/>
      <g id="svg_18">
       <path id="svg_19" d="m7.899997,26.8c0,0 -1,-1.2 -1.8,-1.2c-1.6,-0.3 -2.4,-1.3 -2.7,-1.9c-0.4,-0.8 0,-2.8 0,-2.8s1.4,0 2.2,0.8c2.3,1.9 2.3,5.1 2.3,5.1z"/>
       <path id="svg_20" d="m9.699997,33.1c0,0 -1.3,-2.6 -1.8,-3.3c-0.5,-0.9 -4.1,-3.4 -4.6,-3.8c-0.4,-0.3 -0.3,1.4 0,1.5c0.4,0.2 2.9,2.1 3.6,2.8c0.5,0.4 1,1.2 1.7,2.1c0.6,0.8 1.1,0.7 1.1,0.7z"/>
       <path id="svg_21" d="m8.599997,35c0,0 -1.5,-2.6 -2.9,-3.9c-0.7,-0.6 -2.4,-1.9 -2.4,-1.9c-0.2,0.3 -0.2,1.6 0.6,2.2c0.3,0.2 0.9,0.7 1.5,1c0.5,0.3 2.1,2.2 2.2,2.3c0.3,0.3 1,0.3 1,0.3z"/>
       <path id="svg_22" d="m3.699997,33.1c0,0 0.3,1 0.8,1.5c0.8,0.7 2.5,1.2 3.1,2c0.7,0.9 0.8,5.9 0.8,5.9s-0.4,-0.2 -0.6,-0.7c-0.2,-0.5 -0.8,-3.8 -1.3,-4.3c-0.6,-0.6 -1.2,-0.5 -2.2,-1.6c-0.4,-0.4 -0.6,-2.8 -0.6,-2.8z"/>
       <path id="svg_23" d="m7.999997,12.2l3.4,12.3c0,0 -0.8,-0.1 -1,-0.7c-0.2,-0.7 -4.3,-10.3 -4.3,-10.3c0.6,-1.2 1.9,-1.3 1.9,-1.3z"/>
       <path id="svg_24" d="m4.499997,14.9l2.9,5.7c0,0 -0.6,0.2 -1.1,-0.4c-0.2,-0.3 -2.7,-2.9 -2.7,-2.9s0,-1.6 0.9,-2.4z"/>
      </g>
     </g>
    </g>
   </g>
  </g>
 </g>
</svg>