<svg id="Layer_1" data-name="Layer 1" xmlns="http://www.w3.org/2000/svg" stroke="#FFFFFF" fill="#FFFFFF" viewBox="0 0 86.19 155.43"><title>Xebra-Mark</title><g id="Xebra_Mark" data-name="Xebra Mark"><g id="class_xebra_" data-name="class=&quot;xebra&quot;"><path d="M41,27C38.32,16.44,36.62.33,36.62,0.33l3.11-.65,1.4,5.7L42.94-.81h2.82l0.8,3.09L48-.81,51.69,0a248.29,248.29,0,0,1-4.35,27.34c-1.86-3.09-3.19-5.21-3.19-5.21A14.26,14.26,0,0,1,41,27Z"/><polygon points="49.22 107.75 49.24 107.59 49.01 107.59 36.89 107.59 36.66 107.59 36.68 107.75 22.79 126.14 29.55 150.43 42.94 155.43 42.95 155.37 42.96 155.43 56.35 150.43 63.11 126.14 49.22 107.75"/><path d="M55.88,26.45S73.3,4.88,86.19,4.88c-8.69,8.78-4.3,19.8-17.32,25.26Z"/><path d="M58.88,91.94s3.74-7.15,4.91-9.29c1.39-2.54,11.42-9.46,13-10.52,1.22-.77.72,4,0,4.34a101.35,101.35,0,0,0-10,7.71,65.1,65.1,0,0,0-4.81,6C60.26,92.33,58.88,91.94,58.88,91.94Z"/><path d="M62.09,97.39S66.2,90,70.24,86.51c1.93-1.69,6.81-5.45,6.81-5.45,0.45,0.91.45,4.43-1.77,6.1-0.87.65-2.61,1.82-4.07,2.74S65.42,96.09,65,96.41A5.1,5.1,0,0,1,62.09,97.39Z"/><path d="M75.8,92a10.65,10.65,0,0,1-2.21,4.28c-2.17,2-6.92,3.47-8.58,5.56-2.06,2.59-2.34,16.6-2.34,16.6a3.45,3.45,0,0,0,1.71-1.94c0.5-1.42,2.21-10.64,3.61-12,1.56-1.56,3.24-1.4,6.08-4.58C75.16,98.65,75.8,92,75.8,92Z"/><path d="M63.71,33.42L54.25,67.75s2.25-.15,2.84-2C57.77,63.71,69.24,37,69.24,37A7.42,7.42,0,0,0,63.71,33.42Z"/><path d="M73.46,41L65.35,56.93a3.2,3.2,0,0,0,3.1-1l7.48-8.26S75.94,43.18,73.46,41Z"/><path d="M30.31,26.45S12.89,4.88,0,4.88c8.69,8.78,4.3,19.8,17.32,25.26Z"/><path d="M27.32,91.94s-3.74-7.15-4.91-9.29C21,80.12,11,73.2,9.43,72.14c-1.22-.77-0.72,4,0,4.34a101.35,101.35,0,0,1,10,7.71,65.1,65.1,0,0,1,4.81,6C25.94,92.33,27.32,91.94,27.32,91.94Z"/><path d="M24.1,97.39S20,90,16,86.51C14,84.83,9.14,81.06,9.14,81.06c-0.45.91-.45,4.43,1.77,6.1C11.78,87.81,13.52,89,15,89.89s5.79,6.19,6.19,6.52A5.1,5.1,0,0,0,24.1,97.39Z"/><path d="M10.39,92a10.65,10.65,0,0,0,2.21,4.28c2.17,2,6.92,3.47,8.58,5.56,2.06,2.59,2.34,16.6,2.34,16.6a3.45,3.45,0,0,1-1.71-1.94c-0.5-1.42-2.21-10.64-3.61-12-1.56-1.56-3.24-1.4-6.08-4.58C11,98.65,10.39,92,10.39,92Z"/><path d="M22.49,33.42l9.46,34.33s-2.25-.15-2.84-2C28.43,63.71,17,37,17,37A7.42,7.42,0,0,1,22.49,33.42Z"/><path d="M12.74,41l8.11,15.94a3.2,3.2,0,0,1-3.1-1l-7.48-8.26S10.25,43.18,12.74,41Z"/></g><path id="class_x_" data-name="class=&quot;x&quot;" d="M36.75,102.57H29L39.37,65.92l-8.82-32.5h5.26c0.28,0,2,0,2.63,2.37l4.79,18.37,4.51-18.37c0.66-2.37,2.35-2.37,2.63-2.37h5.26L47.16,66l9.76,36.55H49.6L43.5,77.48Z"/><g id="class_eyes_" data-name="class=&quot;eyes&quot;"><path d="M63.94,74.28s2.79-3.44,5.17-3.45a10.25,10.25,0,0,0,7.64-5.33c1.1-2.3.06-7.73,0.06-7.73S73,57.78,70.6,60C63.9,65.41,63.94,74.28,63.94,74.28Z"/><path d="M22.25,74.28s-2.79-3.44-5.17-3.45A10.25,10.25,0,0,1,9.45,65.5c-1.1-2.3-.06-7.73-0.06-7.73s3.79,0,6.21,2.18C22.29,65.41,22.25,74.28,22.25,74.28Z"/></g></g></svg>
