<?xml version="1.0" encoding="utf-8"?>
<!-- Generator: Adobe Illustrator 19.2.1, SVG Export Plug-In . SVG Version: 6.00 Build 0)  -->
<svg version="1.1" id="Layer_1" xmlns="http://www.w3.org/2000/svg" xmlns:xlink="http://www.w3.org/1999/xlink" x="0px" y="0px"
	 viewBox="0 0 205.4 55.8" style="enable-background:new 0 0 205.4 55.8;" >
<style type="text/css">
	.st0{fill:#58297B;}
	.st1{fill:#231F20;}
	.st2{fill:#5CC6CA;}
	.st3{fill:#FFFFFF;}
	.st4{fill:#010101;}
</style>
<g>
	<g>
		<path d="M111.4,36.9h-2.8l3.7-13.1l-3.1-11.6h1.9c0.1,0,0.7,0,0.9,0.8l1.7,6.6l1.6-6.6c0.2-0.8,0.8-0.8,0.9-0.8h1.9l-3,11.6
			l3.5,13H116l-2.2-9L111.4,36.9z"/>
		<g>
			<path d="M112.9,9.9c-0.9-3.8-1.6-9.5-1.6-9.5l1.1-0.2l0.5,2l0.6-2.2h1l0.3,1.1l0.5-1.1l1.3,0.3c0,0-0.6,5.6-1.6,9.8
				c-0.7-1.1-1.1-1.9-1.1-1.9S113.6,9.3,112.9,9.9z"/>
			<polygon points="115.8,38.7 115.9,38.7 115.8,38.7 111.4,38.7 111.4,38.7 111.4,38.7 106.4,45.3 108.8,54 113.6,55.8 113.6,55.7 
				113.6,55.8 118.4,54 120.8,45.3"/>
			<g>
				<path d="M118.2,9.7c0,0,6.2-7.7,10.8-7.7c-3.1,3.1-1.5,7.1-6.2,9L118.2,9.7z"/>
				<g>
					<path d="M121.1,26.8c0,0,1-1.2,1.8-1.2c1.6-0.3,2.4-1.3,2.7-1.9c0.4-0.8,0-2.8,0-2.8s-1.4,0-2.2,0.8
						C121.1,23.6,121.1,26.8,121.1,26.8z"/>
					<path d="M119.3,33.1c0,0,1.3-2.6,1.8-3.3c0.5-0.9,4.1-3.4,4.6-3.8c0.4-0.3,0.3,1.4,0,1.5c-0.4,0.2-2.9,2.1-3.6,2.8
						c-0.5,0.4-1,1.2-1.7,2.1C119.8,33.2,119.3,33.1,119.3,33.1z"/>
					<path d="M120.4,35c0,0,1.5-2.6,2.9-3.9c0.7-0.6,2.4-1.9,2.4-1.9c0.2,0.3,0.2,1.6-0.6,2.2c-0.3,0.2-0.9,0.7-1.5,1
						c-0.5,0.3-2.1,2.2-2.2,2.3C121.1,35,120.4,35,120.4,35z"/>
					<path d="M125.3,33.1c0,0-0.3,1-0.8,1.5c-0.8,0.7-2.5,1.2-3.1,2c-0.7,0.9-0.8,5.9-0.8,5.9s0.4-0.2,0.6-0.7
						c0.2-0.5,0.8-3.8,1.3-4.3c0.6-0.6,1.2-0.5,2.2-1.6C125.1,35.5,125.3,33.1,125.3,33.1z"/>
					<path d="M121,12.2l-3.4,12.3c0,0,0.8-0.1,1-0.7c0.2-0.7,4.3-10.3,4.3-10.3C122.3,12.3,121,12.2,121,12.2z"/>
					<path d="M124.5,14.9l-2.9,5.7c0,0,0.6,0.2,1.1-0.4c0.2-0.3,2.7-2.9,2.7-2.9S125.4,15.7,124.5,14.9z"/>
				</g>
			</g>
			<g>
				<path d="M109.1,9.7c0,0-6.2-7.7-10.8-7.7c3.1,3.1,1.5,7.1,6.2,9L109.1,9.7z"/>
				<g>
					<path d="M106.2,26.8c0,0-1-1.2-1.8-1.2c-1.6-0.3-2.4-1.3-2.7-1.9c-0.4-0.8,0-2.8,0-2.8s1.4,0,2.2,0.8
						C106.2,23.6,106.2,26.8,106.2,26.8z"/>
					<path d="M108,33.1c0,0-1.3-2.6-1.8-3.3c-0.5-0.9-4.1-3.4-4.6-3.8c-0.4-0.3-0.3,1.4,0,1.5c0.4,0.2,2.9,2.1,3.6,2.8
						c0.5,0.4,1,1.2,1.7,2.1C107.5,33.2,108,33.1,108,33.1z"/>
					<path d="M106.9,35c0,0-1.5-2.6-2.9-3.9c-0.7-0.6-2.4-1.9-2.4-1.9c-0.2,0.3-0.2,1.6,0.6,2.2c0.3,0.2,0.9,0.7,1.5,1
						c0.5,0.3,2.1,2.2,2.2,2.3C106.2,35,106.9,35,106.9,35z"/>
					<path d="M102,33.1c0,0,0.3,1,0.8,1.5c0.8,0.7,2.5,1.2,3.1,2c0.7,0.9,0.8,5.9,0.8,5.9s-0.4-0.2-0.6-0.7
						c-0.2-0.5-0.8-3.8-1.3-4.3c-0.6-0.6-1.2-0.5-2.2-1.6C102.2,35.5,102,33.1,102,33.1z"/>
					<path d="M106.3,12.2l3.4,12.3c0,0-0.8-0.1-1-0.7c-0.2-0.7-4.3-10.3-4.3-10.3C105,12.3,106.3,12.2,106.3,12.2z"/>
					<path d="M102.8,14.9l2.9,5.7c0,0-0.6,0.2-1.1-0.4c-0.2-0.3-2.7-2.9-2.7-2.9S101.9,15.7,102.8,14.9z"/>
				</g>
			</g>
		</g>
	</g>
</g>
</svg>
